<mxfile host="Electron" agent="Mozilla/5.0 (X11; Linux x86_64) AppleWebKit/537.36 (KHTML, like Gecko) draw.io/24.7.17 Chrome/128.0.6613.36 Electron/32.0.1 Safari/537.36" version="24.7.17">
  <diagram name="Page-1" id="u_ih9O-CxRmSir6vkKcd">
    <mxGraphModel dx="2920" dy="1343" grid="1" gridSize="10" guides="1" tooltips="1" connect="1" arrows="1" fold="1" page="1" pageScale="1" pageWidth="850" pageHeight="1100" math="0" shadow="0">
      <root>
        <mxCell id="0" />
        <mxCell id="1" parent="0" />
        <mxCell id="Z63J2gmDSGk1dgefsB4J-1" value="DFX Controller" style="rounded=0;whiteSpace=wrap;html=1;verticalAlign=top;fontSize=12;fontStyle=1" parent="1" vertex="1">
          <mxGeometry x="360" y="120" width="180" height="290" as="geometry" />
        </mxCell>
        <mxCell id="Z63J2gmDSGk1dgefsB4J-2" value="Memory" style="rounded=0;whiteSpace=wrap;html=1;verticalAlign=bottom;fontSize=12;fontStyle=1" parent="1" vertex="1">
          <mxGeometry x="362.5" y="480" width="177.5" height="150" as="geometry" />
        </mxCell>
        <mxCell id="Z63J2gmDSGk1dgefsB4J-3" value="File System" style="rounded=0;whiteSpace=wrap;html=1;verticalAlign=bottom;fontSize=12;fontStyle=1" parent="1" vertex="1">
          <mxGeometry x="150" y="481" width="170" height="150" as="geometry" />
        </mxCell>
        <mxCell id="Z63J2gmDSGk1dgefsB4J-4" value="RP" style="rounded=0;whiteSpace=wrap;html=1;verticalAlign=bottom;fontSize=12;fontStyle=1" parent="1" vertex="1">
          <mxGeometry x="600" y="480" width="175" height="150" as="geometry" />
        </mxCell>
        <mxCell id="Z63J2gmDSGk1dgefsB4J-5" value="ICAP" style="rounded=0;whiteSpace=wrap;html=1;fontSize=12;fontStyle=1" parent="1" vertex="1">
          <mxGeometry x="640" y="221.5" width="120" height="60" as="geometry" />
        </mxCell>
        <mxCell id="Z63J2gmDSGk1dgefsB4J-6" value="Software" style="rounded=1;whiteSpace=wrap;html=1;fontSize=12;fontStyle=1" parent="1" vertex="1">
          <mxGeometry x="160" y="300" width="120" height="60" as="geometry" />
        </mxCell>
        <mxCell id="Z63J2gmDSGk1dgefsB4J-7" value="RM Partial Bitstream&lt;div style=&quot;font-size: 12px;&quot;&gt;File&lt;/div&gt;" style="rounded=1;whiteSpace=wrap;html=1;fillColor=#dae8fc;strokeColor=#6c8ebf;fontSize=12;fontStyle=1" parent="1" vertex="1">
          <mxGeometry x="175" y="511" width="120" height="60" as="geometry" />
        </mxCell>
        <mxCell id="Z63J2gmDSGk1dgefsB4J-8" value="RM Partial Bitstream Memory Buffer" style="rounded=1;whiteSpace=wrap;html=1;fillColor=#dae8fc;strokeColor=#000000;fontSize=12;fontStyle=1" parent="1" vertex="1">
          <mxGeometry x="390" y="510" width="120" height="60" as="geometry" />
        </mxCell>
        <mxCell id="Z63J2gmDSGk1dgefsB4J-9" value="addr" style="rounded=0;whiteSpace=wrap;html=1;fontSize=12;fontStyle=1" parent="1" vertex="1">
          <mxGeometry x="395" y="371.5" width="50" height="20" as="geometry" />
        </mxCell>
        <mxCell id="Z63J2gmDSGk1dgefsB4J-10" value="size" style="rounded=0;whiteSpace=wrap;html=1;fontSize=12;fontStyle=1" parent="1" vertex="1">
          <mxGeometry x="445" y="371.5" width="50" height="20" as="geometry" />
        </mxCell>
        <mxCell id="Z63J2gmDSGk1dgefsB4J-11" value="BS_INFO_0 Reg." style="text;html=1;align=center;verticalAlign=middle;whiteSpace=wrap;rounded=0;fontSize=12;fontStyle=1" parent="1" vertex="1">
          <mxGeometry x="395" y="341.5" width="110" height="30" as="geometry" />
        </mxCell>
        <mxCell id="Z63J2gmDSGk1dgefsB4J-12" value="enable DFX Ctrl" style="rounded=0;whiteSpace=wrap;html=1;fontSize=12;fontStyle=1" parent="1" vertex="1">
          <mxGeometry x="395" y="311.5" width="100" height="20" as="geometry" />
        </mxCell>
        <mxCell id="Z63J2gmDSGk1dgefsB4J-13" value="DFX Ctrl Reg." style="text;html=1;align=center;verticalAlign=middle;whiteSpace=wrap;rounded=0;fontSize=12;fontStyle=1" parent="1" vertex="1">
          <mxGeometry x="395" y="281.5" width="105" height="30" as="geometry" />
        </mxCell>
        <mxCell id="Z63J2gmDSGk1dgefsB4J-14" value="trigger" style="rounded=0;whiteSpace=wrap;html=1;fontSize=12;fontStyle=1" parent="1" vertex="1">
          <mxGeometry x="395" y="248.5" width="100" height="20" as="geometry" />
        </mxCell>
        <mxCell id="Z63J2gmDSGk1dgefsB4J-15" value="SW_TRIG Reg." style="text;html=1;align=center;verticalAlign=middle;whiteSpace=wrap;rounded=0;fontSize=12;fontStyle=1" parent="1" vertex="1">
          <mxGeometry x="395" y="218.5" width="105" height="30" as="geometry" />
        </mxCell>
        <mxCell id="Z63J2gmDSGk1dgefsB4J-16" value="status" style="rounded=0;whiteSpace=wrap;html=1;fontSize=12;fontStyle=1" parent="1" vertex="1">
          <mxGeometry x="395" y="190.5" width="100" height="20" as="geometry" />
        </mxCell>
        <mxCell id="Z63J2gmDSGk1dgefsB4J-17" value="DFX_STATUS Reg." style="text;html=1;align=center;verticalAlign=middle;whiteSpace=wrap;rounded=0;fontSize=12;fontStyle=1" parent="1" vertex="1">
          <mxGeometry x="395" y="160.5" width="110" height="30" as="geometry" />
        </mxCell>
        <mxCell id="Z63J2gmDSGk1dgefsB4J-18" value="" style="endArrow=classic;html=1;rounded=0;dashed=1;" parent="1" source="Z63J2gmDSGk1dgefsB4J-9" target="Z63J2gmDSGk1dgefsB4J-8" edge="1">
          <mxGeometry width="50" height="50" relative="1" as="geometry">
            <mxPoint x="510" y="830" as="sourcePoint" />
            <mxPoint x="560" y="780" as="targetPoint" />
          </mxGeometry>
        </mxCell>
        <mxCell id="Z63J2gmDSGk1dgefsB4J-20" value="RM" style="rounded=1;whiteSpace=wrap;html=1;fillColor=#dae8fc;strokeColor=#000000;fontSize=12;fontStyle=1;" parent="1" vertex="1">
          <mxGeometry x="627.5" y="510" width="120" height="60" as="geometry" />
        </mxCell>
        <mxCell id="Z63J2gmDSGk1dgefsB4J-23" value="&lt;font style=&quot;font-size: 12px;&quot;&gt;&lt;b&gt;4. DFX Controller resets RM&lt;/b&gt;&lt;/font&gt;" style="endArrow=classic;html=1;rounded=0;exitX=1;exitY=0.5;exitDx=0;exitDy=0;entryX=0.321;entryY=0.05;entryDx=0;entryDy=0;entryPerimeter=0;edgeStyle=orthogonalEdgeStyle;curved=1;" parent="1" source="Z63J2gmDSGk1dgefsB4J-1" target="Z63J2gmDSGk1dgefsB4J-20" edge="1">
          <mxGeometry x="0.1818" y="-6" width="50" height="50" relative="1" as="geometry">
            <mxPoint x="590" y="270" as="sourcePoint" />
            <mxPoint x="640" y="220" as="targetPoint" />
            <mxPoint as="offset" />
          </mxGeometry>
        </mxCell>
        <mxCell id="Z63J2gmDSGk1dgefsB4J-24" value="&lt;font style=&quot;font-size: 12px;&quot;&gt;&lt;b&gt;SW monitors status register&lt;/b&gt;&lt;/font&gt;&lt;div style=&quot;font-size: 12px;&quot;&gt;&lt;font style=&quot;font-size: 12px;&quot;&gt;&lt;b&gt;for completion of RP configuration&lt;/b&gt;&lt;/font&gt;&lt;/div&gt;" style="endArrow=classic;html=1;rounded=0;entryX=0;entryY=0.5;entryDx=0;entryDy=0;" parent="1" source="Z63J2gmDSGk1dgefsB4J-6" target="Z63J2gmDSGk1dgefsB4J-16" edge="1">
          <mxGeometry x="-0.4227" y="16" width="50" height="50" relative="1" as="geometry">
            <mxPoint x="240" y="260" as="sourcePoint" />
            <mxPoint x="290" y="210" as="targetPoint" />
            <Array as="points">
              <mxPoint x="300" y="240" />
            </Array>
            <mxPoint as="offset" />
          </mxGeometry>
        </mxCell>
        <mxCell id="HUTXcgkcIO0TU0ZbMKxw-1" value="" style="rounded=0;whiteSpace=wrap;html=1;fillColor=none;strokeColor=none;" vertex="1" parent="1">
          <mxGeometry x="-30" y="480" width="950" height="60" as="geometry" />
        </mxCell>
      </root>
    </mxGraphModel>
  </diagram>
</mxfile>
